<svg width="15" height="15" viewBox="0 0 15 15" fill="none" xmlns="http://www.w3.org/2000/svg">
<g clip-path="url(#clip0_2186_1781)">
<path d="M10 6.25C9.10563 6.25 8.21188 5.985 7.32313 5.45563C7.04688 5.29063 6.875 4.98312 6.875 4.65188V2.8125C6.875 2.64 7.015 2.5 7.1875 2.5C7.36 2.5 7.5 2.64 7.5 2.8125V4.65188C7.5 4.76187 7.55625 4.86625 7.64313 4.91812C9.22938 5.86438 10.7706 5.86438 12.3563 4.91812C12.4438 4.86625 12.5 4.76187 12.5 4.65188V2.8125C12.5 2.64 12.64 2.5 12.8125 2.5C12.985 2.5 13.125 2.64 13.125 2.8125V4.65188C13.125 4.9825 12.9531 5.29 12.6763 5.455C11.7881 5.985 10.8944 6.25 10 6.25Z" fill="black"/>
<path d="M10 4.37509C9.95563 4.37509 9.91063 4.36509 9.86938 4.34634L5.80688 2.47134C5.69563 2.42009 5.625 2.30946 5.625 2.18759C5.625 2.06571 5.69563 1.95509 5.80688 1.90384L9.86938 0.0288379C9.9525 -0.00928711 10.0481 -0.00928711 10.1312 0.0288379L14.1938 1.90384C14.3044 1.95509 14.375 2.06571 14.375 2.18759C14.375 2.30946 14.3044 2.42009 14.1931 2.47134L10.1306 4.34634C10.0894 4.36509 10.0444 4.37509 10 4.37509ZM6.68313 2.18759L10 3.71821L13.3169 2.18759L10 0.656963L6.68313 2.18759Z" fill="black"/>
<path d="M0.9375 11.25C0.765 11.25 0.625 11.11 0.625 10.9375V1.5625C0.625 0.700625 1.32625 0 2.1875 0H5.9375C6.11 0 6.25 0.14 6.25 0.3125C6.25 0.485 6.11 0.625 5.9375 0.625H2.1875C1.67062 0.625 1.25 1.04562 1.25 1.5625V10.9375C1.25 11.11 1.11 11.25 0.9375 11.25Z" fill="black"/>
<path d="M4.6875 12.5H2.1875C1.32625 12.5 0.625 11.7994 0.625 10.9375C0.625 10.0756 1.32625 9.375 2.1875 9.375H11.25V7.8125C11.25 7.64 11.39 7.5 11.5625 7.5C11.735 7.5 11.875 7.64 11.875 7.8125V9.6875C11.875 9.86 11.735 10 11.5625 10H2.1875C1.67062 10 1.25 10.4206 1.25 10.9375C1.25 11.4544 1.67062 11.875 2.1875 11.875H4.6875C4.86 11.875 5 12.015 5 12.1875C5 12.36 4.86 12.5 4.6875 12.5Z" fill="black"/>
<path d="M11.5625 12.5H7.8125C7.64 12.5 7.5 12.36 7.5 12.1875C7.5 12.015 7.64 11.875 7.8125 11.875H11.25V9.6875C11.25 9.515 11.39 9.375 11.5625 9.375C11.735 9.375 11.875 9.515 11.875 9.6875V12.1875C11.875 12.36 11.735 12.5 11.5625 12.5Z" fill="black"/>
<path d="M7.8125 15C7.74312 15 7.67375 14.9769 7.61688 14.9319L6.25 13.8381L4.8825 14.9319C4.78875 15.0069 4.66062 15.0213 4.55187 14.9694C4.44375 14.9169 4.375 14.8075 4.375 14.6875V10.9375C4.375 10.765 4.515 10.625 4.6875 10.625C4.86 10.625 5 10.765 5 10.9375V14.0375L6.055 13.1931C6.16937 13.1019 6.33125 13.1019 6.44562 13.1931L7.5 14.0375V10.9375C7.5 10.765 7.64 10.625 7.8125 10.625C7.985 10.625 8.125 10.765 8.125 10.9375V14.6875C8.125 14.8075 8.05625 14.9169 7.94812 14.9688C7.905 14.9894 7.85875 15 7.8125 15Z" fill="black"/>
<path d="M9.0625 11.25H3.4375C3.265 11.25 3.125 11.11 3.125 10.9375C3.125 10.765 3.265 10.625 3.4375 10.625H9.0625C9.235 10.625 9.375 10.765 9.375 10.9375C9.375 11.11 9.235 11.25 9.0625 11.25Z" fill="black"/>
</g>
<defs>
<clipPath id="clip0_2186_1781">
<rect width="15" height="15" fill="white"/>
</clipPath>
</defs>
</svg>
