<svg width="19" height="15" viewBox="0 0 19 15" fill="none" xmlns="http://www.w3.org/2000/svg">
<g clip-path="url(#clip0_2186_1771)">
<path d="M6.49999 0C3.53022 0 1.11414 2.41608 1.11414 5.38585C1.11414 6.97693 1.9892 9.06674 3.71508 11.5973C4.50576 12.7519 5.36599 13.8573 6.29101 14.9073C6.31744 14.9365 6.34969 14.9598 6.38568 14.9758C6.42167 14.9918 6.46061 15 6.49999 15C6.53936 15 6.5783 14.9918 6.61429 14.9758C6.65029 14.9598 6.68253 14.9365 6.70896 14.9073C7.63398 13.8573 8.4942 12.7519 9.28486 11.5973C11.0107 9.06674 11.8858 6.97693 11.8858 5.38585C11.8858 2.41608 9.46975 0 6.49999 0ZM6.49999 14.2905C5.54848 13.1882 1.67804 8.51153 1.67804 5.38585C1.67804 2.72704 3.84115 0.563906 6.49999 0.563906C9.15882 0.563906 11.3219 2.72704 11.3219 5.38585C11.3219 8.51153 7.45149 13.1882 6.49999 14.2905Z" fill="black"/>
<path d="M6.49996 2.69702C6.01143 2.69702 5.53388 2.84187 5.12768 3.11328C4.72148 3.38469 4.40489 3.77045 4.21794 4.22179C4.03098 4.67312 3.98206 5.16976 4.07737 5.6489C4.17267 6.12804 4.40791 6.56816 4.75335 6.9136C5.09879 7.25904 5.5389 7.49429 6.01804 7.5896C6.49718 7.68491 6.99382 7.63599 7.44516 7.44904C7.8965 7.2621 8.28226 6.94551 8.55367 6.53931C8.82508 6.13312 8.96995 5.65557 8.96995 5.16704C8.9692 4.51218 8.70873 3.88436 8.24568 3.42131C7.78263 2.95825 7.15481 2.69777 6.49996 2.69702ZM6.49996 7.07312C6.12296 7.07313 5.75443 6.96134 5.44097 6.7519C5.1275 6.54245 4.88319 6.24476 4.73891 5.89646C4.59464 5.54817 4.55689 5.16491 4.63044 4.79515C4.70399 4.4254 4.88553 4.08576 5.1521 3.81919C5.41868 3.55261 5.75832 3.37107 6.12807 3.29752C6.49782 3.22398 6.88108 3.26173 7.22938 3.406C7.57768 3.55027 7.87537 3.79459 8.08482 4.10805C8.29426 4.42151 8.40605 4.79005 8.40604 5.16704C8.40547 5.67239 8.20447 6.15688 7.84714 6.51422C7.4898 6.87156 7.00531 7.07256 6.49996 7.07312Z" fill="black"/>
</g>
<defs>
<clipPath id="clip0_2186_1771">
<rect width="18.1714" height="15" fill="white" transform="translate(0.268555)"/>
</clipPath>
</defs>
</svg>
